M48
; DRILL file {KiCad 7.0.5} date Thu Mar 28 12:58:47 2024
; FORMAT={-:-/ absolute / metric / decimal}
; #@! TF.CreationDate,2024-03-28T12:58:47+04:00
; #@! TF.GenerationSoftware,Kicad,Pcbnew,7.0.5
; #@! TF.FileFunction,Plated,1,2,PTH
FMAT,2
METRIC
; #@! TA.AperFunction,Plated,PTH,ComponentDrill
T1C0.800
; #@! TA.AperFunction,Plated,PTH,ComponentDrill
T2C1.000
; #@! TA.AperFunction,Plated,PTH,ComponentDrill
T3C1.100
; #@! TA.AperFunction,Plated,PTH,ComponentDrill
T4C1.520
%
G90
G05
T1
X43.2Y127.0
X43.2Y165.1
X50.8Y127.0
X50.8Y165.1
X57.15Y139.7
X57.15Y152.4
X63.5Y139.7
X63.5Y152.4
X63.5Y171.45
X63.5Y184.15
X69.85Y139.7
X69.85Y152.4
X69.85Y171.45
X69.85Y184.15
X74.93Y144.78
X74.93Y147.32
X74.93Y149.86
X74.93Y152.4
X74.93Y154.94
X74.93Y157.48
X74.93Y160.02
X74.93Y162.56
X82.55Y144.78
X82.55Y147.32
X82.55Y149.86
X82.55Y152.4
X82.55Y154.94
X82.55Y157.48
X82.55Y160.02
X82.55Y162.56
X82.55Y171.45
X87.63Y143.51
X87.63Y146.05
X87.63Y148.59
X87.63Y151.13
X87.63Y153.67
X87.63Y156.21
X87.63Y158.75
X87.63Y161.29
X95.25Y143.51
X95.25Y146.05
X95.25Y148.59
X95.25Y151.13
X95.25Y153.67
X95.25Y156.21
X95.25Y158.75
X95.25Y161.29
X95.25Y171.45
X101.6Y146.05
X101.6Y152.4
X101.6Y165.1
X101.6Y171.45
X114.3Y146.05
X114.3Y171.45
X120.65Y152.4
X120.65Y165.1
X139.7Y120.65
X139.7Y165.1
X147.3Y120.65
X147.3Y165.1
T2
X38.1Y146.05
X38.1Y148.59
X38.1Y151.13
X69.85Y127.0
X72.39Y127.0
X74.93Y127.0
X107.95Y127.0
X110.49Y127.0
X113.03Y127.0
X139.7Y147.32
X139.7Y149.86
X139.7Y152.4
T3
X63.5Y154.94
X63.5Y165.1
X69.85Y154.94
X69.85Y165.1
X107.95Y154.94
X107.95Y165.1
X114.3Y154.94
X114.3Y165.1
T4
X31.75Y133.35
X31.75Y138.43
X90.17Y190.5
X95.25Y190.5
X146.05Y133.35
X146.05Y138.43
T0
M30
